<svg xmlns="http://www.w3.org/2000/svg" viewBox="0 0 180 180">
  <defs>
    <linearGradient id="gold" x1="0%" y1="0%" x2="100%" y2="100%">
      <stop offset="0%" stop-color="#FFD23F"/>
      <stop offset="100%" stop-color="#F6C85F"/>
    </linearGradient>
  </defs>
  <rect width="180" height="180" rx="32" ry="32" fill="#0D1A3B"/>
  <circle cx="90" cy="70" r="34" fill="#FFFFFF" opacity="0.15"/>
  <path d="M58 68 C58 40 96 22 96 22 C96 22 134 40 134 68 C134 96 96 114 96 114 C96 114 58 96 58 68 Z" fill="url(#gold)"/>
  <path d="M90 44 L102 74 L78 74 Z" fill="#FFFFFF"/>
  <path d="M76 84 C82 92 96 108 96 108 C96 108 110 92 116 84" stroke="#FFFFFF" stroke-width="8" fill="none" stroke-linecap="round"/>
  <path d="M42 84 H60" stroke="#D32D41" stroke-width="16" stroke-linecap="round"/>
  <path d="M120 84 H138" stroke="#D32D41" stroke-width="16" stroke-linecap="round"/>
  <path d="M54 124 H126" stroke="#FFFFFF" stroke-width="8" stroke-linecap="round" opacity="0.55"/>
</svg>
